<svg width="24" height="24" viewBox="0 0 24 24" fill="none" xmlns="http://www.w3.org/2000/svg">
<g id="vuesax/outline/arrow-left">
<g id="arrow-left">
<path id="Vector" d="M9.57141 18.8191C9.38141 18.8191 9.19141 18.7491 9.04141 18.5991L2.97141 12.5291C2.68141 12.2391 2.68141 11.7591 2.97141 11.4691L9.04141 5.39914C9.33141 5.10914 9.81141 5.10914 10.1014 5.39914C10.3914 5.68914 10.3914 6.16914 10.1014 6.45914L4.56141 11.9991L10.1014 17.5391C10.3914 17.8291 10.3914 18.3091 10.1014 18.5991C9.96141 18.7491 9.76141 18.8191 9.57141 18.8191Z" fill="#292D32"/>
<path id="Vector_2" d="M20.5019 12.75H3.67188C3.26188 12.75 2.92188 12.41 2.92188 12C2.92188 11.59 3.26188 11.25 3.67188 11.25H20.5019C20.9119 11.25 21.2519 11.59 21.2519 12C21.2519 12.41 20.9119 12.75 20.5019 12.75Z" fill="#292D32"/>
</g>
</g>
</svg>
