<svg width="21" height="20" viewBox="0 0 21 20" fill="none" xmlns="http://www.w3.org/2000/svg">
<g id="material-symbols:download-for-offline-rounded">
<path id="Vector" d="M9.72085 8.40219L8.98432 7.68611C8.82064 7.53607 8.62614 7.46433 8.40081 7.47087C8.17549 7.47742 7.98808 7.55599 7.83859 7.70657C7.68855 7.8566 7.61353 8.04756 7.61353 8.27943C7.61353 8.5113 7.68855 8.70226 7.83859 8.85229L9.96637 10.9801C10.1164 11.1301 10.3074 11.2051 10.5392 11.2051C10.7711 11.2051 10.9621 11.1301 11.1121 10.9801L13.2603 8.83183C13.4104 8.6818 13.4821 8.49412 13.4756 8.26879C13.469 8.04347 13.3905 7.85606 13.2399 7.70657C13.0898 7.55653 12.8989 7.47797 12.667 7.47087C12.4351 7.46378 12.2442 7.54235 12.0941 7.70657L11.3576 8.40219V5.80384C11.3576 5.57197 11.279 5.38102 11.1219 5.23098C10.9648 5.08094 10.7706 5.00593 10.5392 5.00593C10.3074 5.00593 10.1129 5.08449 9.95573 5.24162C9.7986 5.39875 9.72031 5.59297 9.72085 5.8243V8.40219ZM7.26573 14.0081H13.8332C14.0651 14.0081 14.256 13.9295 14.4061 13.7724C14.5561 13.6152 14.6311 13.421 14.6311 13.1897C14.6311 12.9578 14.5525 12.7633 14.3954 12.6062C14.2383 12.4491 14.0441 12.3708 13.8127 12.3713H7.24527C7.01339 12.3713 6.82244 12.4499 6.6724 12.607C6.52237 12.7641 6.44735 12.9584 6.44735 13.1897C6.44735 13.4216 6.52591 13.6161 6.68304 13.7732C6.84017 13.9303 7.0344 14.0086 7.26573 14.0081ZM10.5392 18.0999C9.40714 18.0999 8.34325 17.885 7.34756 17.4551C6.35187 17.0251 5.48576 16.4422 4.74922 15.7062C4.01268 14.9697 3.42972 14.1035 3.00035 13.1078C2.57097 12.1122 2.35601 11.0483 2.35547 9.91618C2.35547 8.7841 2.57043 7.72021 3.00035 6.72452C3.43027 5.72883 4.01323 4.86271 4.74922 4.12617C5.48576 3.38963 6.35187 2.80668 7.34756 2.3773C8.34325 1.94793 9.40714 1.73297 10.5392 1.73242C11.6713 1.73242 12.7352 1.94738 13.7309 2.3773C14.7266 2.80722 15.5927 3.39018 16.3292 4.12617C17.0658 4.86271 17.649 5.72883 18.0789 6.72452C18.5088 7.72021 18.7235 8.7841 18.723 9.91618C18.723 11.0483 18.508 12.1122 18.0781 13.1078C17.6482 14.1035 17.0652 14.9697 16.3292 15.7062C15.5927 16.4427 14.7266 17.026 13.7309 17.4559C12.7352 17.8858 11.6713 18.1005 10.5392 18.0999Z" fill="#FFC300"/>
</g>
</svg>
