<svg width="21" height="21" viewBox="0 0 21 21" fill="none" xmlns="http://www.w3.org/2000/svg">
<g id="vuesax/outline/note-text">
<g id="note-text">
<path id="Vector" d="M7.24014 4.87835C6.89319 4.87835 6.60547 4.59063 6.60547 4.24368V1.70499C6.60547 1.35803 6.89319 1.07031 7.24014 1.07031C7.5871 1.07031 7.87482 1.35803 7.87482 1.70499V4.24368C7.87482 4.59063 7.5871 4.87835 7.24014 4.87835Z" fill="#F5772D"/>
<path id="Vector_2" d="M14.0097 4.87835C13.6627 4.87835 13.375 4.59063 13.375 4.24368V1.70499C13.375 1.35803 13.6627 1.07031 14.0097 1.07031C14.3566 1.07031 14.6443 1.35803 14.6443 1.70499V4.24368C14.6443 4.59063 14.3566 4.87835 14.0097 4.87835Z" fill="#F5772D"/>
<path id="Vector_3" d="M14.0068 19.2625H7.23692C4.14818 19.2625 2.37109 17.4854 2.37109 14.3967V7.20372C2.37109 4.11498 4.14818 2.33789 7.23692 2.33789H14.0068C17.0955 2.33789 18.8726 4.11498 18.8726 7.20372V14.3967C18.8726 17.4854 17.0955 19.2625 14.0068 19.2625ZM7.23692 3.60724C4.8167 3.60724 3.64044 4.7835 3.64044 7.20372V14.3967C3.64044 16.8169 4.8167 17.9932 7.23692 17.9932H14.0068C16.427 17.9932 17.6033 16.8169 17.6033 14.3967V7.20372C17.6033 4.7835 16.427 3.60724 14.0068 3.60724H7.23692Z" fill="#F5772D"/>
<path id="Vector_4" d="M14.01 9.95489H7.24014C6.89319 9.95489 6.60547 9.66717 6.60547 9.32022C6.60547 8.97327 6.89319 8.68555 7.24014 8.68555H14.01C14.3569 8.68555 14.6447 8.97327 14.6447 9.32022C14.6447 9.66717 14.3569 9.95489 14.01 9.95489Z" fill="#F5772D"/>
<path id="Vector_5" d="M10.6251 14.1854H7.24014C6.89319 14.1854 6.60547 13.8976 6.60547 13.5507C6.60547 13.2037 6.89319 12.916 7.24014 12.916H10.6251C10.972 12.916 11.2597 13.2037 11.2597 13.5507C11.2597 13.8976 10.972 14.1854 10.6251 14.1854Z" fill="#F5772D"/>
</g>
</g>
</svg>
