<svg width="21" height="20" viewBox="0 0 21 20" fill="none" xmlns="http://www.w3.org/2000/svg">
<g id="vuesax/outline/volume-high">
<g id="volume-high">
<path id="Vector" d="M11.2516 16.9475C10.605 16.9475 9.89305 16.7183 9.18106 16.2682L6.79141 14.7706C6.62773 14.6724 6.4395 14.6151 6.25128 14.6151H5.07282C3.09235 14.6151 2.00391 13.5267 2.00391 11.5462V8.2727C2.00391 6.29223 3.09235 5.20379 5.07282 5.20379H6.24309C6.43132 5.20379 6.61955 5.14651 6.78322 5.0483L9.17288 3.55067C10.3677 2.80595 11.5298 2.66683 12.4464 3.17422C13.363 3.68162 13.8622 4.73732 13.8622 6.15311V13.6576C13.8622 15.0652 13.3548 16.1291 12.4464 16.6365C12.0863 16.8493 11.6771 16.9475 11.2516 16.9475ZM5.07282 6.43954C3.77978 6.43954 3.23147 6.98785 3.23147 8.28089V11.5544C3.23147 12.8474 3.77978 13.3957 5.07282 13.3957H6.24309C6.66865 13.3957 7.07784 13.5103 7.43792 13.7395L9.82758 15.2371C10.6132 15.7281 11.3579 15.8591 11.8572 15.5808C12.3564 15.3026 12.6428 14.6069 12.6428 13.6822V6.16129C12.6428 5.22835 12.3564 4.53273 11.8572 4.26266C11.3579 3.98441 10.6132 4.10717 9.82758 4.60638L7.42974 6.09582C7.07784 6.32497 6.66047 6.43954 6.24309 6.43954H5.07282Z" fill="#292D32"/>
<path id="Vector_2" d="M15.7117 13.8041C15.5807 13.8041 15.458 13.7632 15.3434 13.6813C15.0733 13.4767 15.016 13.0921 15.2206 12.822C16.5055 11.1116 16.5055 8.72198 15.2206 7.01157C15.016 6.74151 15.0733 6.35687 15.3434 6.15228C15.6135 5.94768 15.9981 6.00497 16.2027 6.27503C17.8067 8.41918 17.8067 11.4144 16.2027 13.5586C16.0799 13.7223 15.8999 13.8041 15.7117 13.8041Z" fill="#292D32"/>
<path id="Vector_3" d="M17.2078 15.8491C17.0768 15.8491 16.9541 15.8082 16.8395 15.7263C16.5694 15.5217 16.5121 15.1371 16.7167 14.867C18.9018 11.9536 18.9018 7.87811 16.7167 4.9647C16.5121 4.69463 16.5694 4.31 16.8395 4.1054C17.1096 3.90081 17.4942 3.95809 17.6988 4.22816C20.2112 7.57532 20.2112 12.2564 17.6988 15.6036C17.5842 15.7673 17.396 15.8491 17.2078 15.8491Z" fill="#292D32"/>
</g>
</g>
</svg>
